{
	"asset":{
		"generator":"Khronos glTF Blender I/O v3.6.28",
		"version":"2.0"
	},
	"extensionsUsed":[
		"KHR_materials_specular",
		"KHR_materials_ior"
	],
	"scene":0,
	"scenes":[
		{
			"name":"Scene",
			"nodes":[
				0
			]
		}
	],
	"nodes":[
		{
			"mesh":0,
			"name":"Curve",
			"rotation":[
				0.38159453868865967,
				0,
				0,
				0.9243298172950745
			],
			"scale":[
				0.7736161947250366,
				0.7736162543296814,
				0.7736162543296814
			],
			"translation":[
				0.004831232130527496,
				0.17099899053573608,
				-0.0412188321352005
			]
		}
	],
	"materials":[
		{
			"doubleSided":true,
			"extensions":{
				"KHR_materials_specular":{
					"specularColorFactor":[
						0,
						0,
						0
					]
				},
				"KHR_materials_ior":{
					"ior":1.4500000476837158
				}
			},
			"name":"Material.010",
			"pbrMetallicRoughness":{
				"baseColorFactor":[
					0.8549929857254028,
					0.024157393723726273,
					0.06480327993631363,
					1
				],
				"metallicFactor":0.5,
				"roughnessFactor":0.29109588265419006
			}
		}
	],
	"meshes":[
		{
			"name":"Curve",
			"primitives":[
				{
					"attributes":{
						"POSITION":0,
						"NORMAL":1,
						"TEXCOORD_0":2
					},
					"indices":3,
					"material":0
				}
			]
		}
	],
	"accessors":[
		{
			"bufferView":0,
			"componentType":5126,
			"count":5084,
			"max":[
				0.06483864039182663,
				0.029999999329447746,
				0.06611017137765884
			],
			"min":[
				-0.06777913123369217,
				-0.029999999329447746,
				-0.06621844321489334
			],
			"type":"VEC3"
		},
		{
			"bufferView":1,
			"componentType":5126,
			"count":5084,
			"type":"VEC3"
		},
		{
			"bufferView":2,
			"componentType":5126,
			"count":5084,
			"type":"VEC2"
		},
		{
			"bufferView":3,
			"componentType":5123,
			"count":15072,
			"type":"SCALAR"
		}
	],
	"bufferViews":[
		{
			"buffer":0,
			"byteLength":61008,
			"byteOffset":0,
			"target":34962
		},
		{
			"buffer":0,
			"byteLength":61008,
			"byteOffset":61008,
			"target":34962
		},
		{
			"buffer":0,
			"byteLength":40672,
			"byteOffset":122016,
			"target":34962
		},
		{
			"buffer":0,
			"byteLength":30144,
			"byteOffset":162688,
			"target":34963
		}
	],
	"buffers":[
		{
			"byteLength":192832,
			"uri":"data:application/octet-stream;base64,"
		}
	]
}
